<svg xmlns="http://www.w3.org/2000/svg" xmlns:xlink="http://www.w3.org/1999/xlink" width="1920" zoomAndPan="magnify" viewBox="0 0 1440 809.999993" height="1080" preserveAspectRatio="xMidYMid meet" version="1.0"><path fill="#ffffff" d="M 527.988281 287.457031 L 1228.183594 287.457031 C 1257.183594 287.457031 1280.703125 310.96875 1280.703125 339.953125 L 1280.703125 396.664062 C 1280.703125 425.648438 1257.183594 449.160156 1228.183594 449.160156 L 528.027344 449.160156 C 499.027344 449.160156 475.503906 425.648438 475.503906 396.664062 L 475.503906 339.953125 C 475.503906 310.96875 498.992188 287.457031 527.988281 287.457031 Z M 527.988281 287.457031 " fill-opacity="1" fill-rule="nonzero"/><path fill="#ffffff" d="M 161.320312 429.71875 L 438.476562 589.660156 C 485.773438 616.953125 544.882812 582.816406 544.882812 528.230469 L 544.882812 208.347656 C 544.882812 153.761719 485.773438 119.628906 438.476562 146.921875 L 161.320312 306.863281 C 114.023438 334.191406 114.023438 402.425781 161.320312 429.71875 Z M 161.320312 429.71875 " fill-opacity="1" fill-rule="nonzero"/></svg>