<svg xmlns="http://www.w3.org/2000/svg" xmlns:xlink="http://www.w3.org/1999/xlink" width="1920" zoomAndPan="magnify" viewBox="0 0 1440 809.999993" height="1080" preserveAspectRatio="xMidYMid meet" version="1.0"><path fill="#ffffff" d="M 866.542969 449.011719 L 166.347656 449.011719 C 137.351562 449.011719 113.828125 425.5 113.828125 396.515625 L 113.828125 339.804688 C 113.828125 310.820312 137.351562 287.308594 166.347656 287.308594 L 866.507812 287.308594 C 895.503906 287.308594 919.027344 310.820312 919.027344 339.804688 L 919.027344 396.515625 C 919.027344 425.5 895.539062 449.011719 866.542969 449.011719 Z M 866.542969 449.011719 " fill-opacity="1" fill-rule="nonzero"/><path fill="#ffffff" d="M 1233.210938 306.75 L 956.058594 146.808594 C 908.761719 119.515625 849.648438 153.652344 849.648438 208.238281 L 849.648438 528.121094 C 849.648438 582.707031 908.761719 616.839844 956.058594 589.546875 L 1233.210938 429.605469 C 1280.507812 402.277344 1280.507812 334.042969 1233.210938 306.75 Z M 1233.210938 306.75 " fill-opacity="1" fill-rule="nonzero"/></svg>